<?xml version="1.0" standalone="no"?>
<!DOCTYPE svg PUBLIC "-//W3C//DTD SVG 20010904//EN"
 "http://www.w3.org/TR/2001/REC-SVG-20010904/DTD/svg10.dtd">
<svg version="1.0" xmlns="http://www.w3.org/2000/svg"
 width="348.000000pt" height="319.000000pt" viewBox="0 0 348.000000 319.000000"
 preserveAspectRatio="xMidYMid meet">
<metadata>
Created by potrace 1.16, written by Peter Selinger 2001-2019
</metadata>
<g transform="translate(0.000000,319.000000) scale(0.100000,-0.100000)"
fill="#000000" stroke="none">
<path d="M1578 3175 c-270 -51 -504 -236 -619 -490 -59 -132 -83 -322 -58
-475 21 -135 58 -213 269 -565 111 -187 216 -361 231 -388 l28 -47 -284 0
c-157 0 -285 2 -285 4 0 2 19 35 42 72 70 116 88 163 88 230 0 118 -60 217
-162 268 -42 21 -66 26 -127 26 -89 0 -138 -19 -201 -76 -68 -62 -85 -103 -85
-214 l0 -95 61 -105 62 -105 -74 -3 c-71 -3 -74 -4 -80 -30 -7 -27 -101 -377
-219 -810 -35 -128 -61 -240 -58 -248 4 -12 224 -14 1627 -14 891 0 1627 4
1634 9 13 8 -3 90 -43 221 -7 25 -26 90 -40 145 -15 55 -43 156 -62 225 -19
69 -49 179 -67 245 -19 66 -42 150 -52 187 l-19 68 -526 2 -525 3 101 170
c298 498 342 574 363 618 83 176 94 428 27 620 -72 208 -247 400 -447 492
-136 62 -351 88 -500 60z m278 -536 c66 -25 140 -95 174 -164 21 -42 25 -65
25 -140 0 -84 -2 -94 -36 -155 -65 -118 -168 -175 -307 -168 -127 6 -219 66
-279 180 -24 46 -27 65 -28 143 0 84 3 94 34 153 85 156 246 215 417 151z
m-1080 -854 c95 -28 167 -105 190 -203 19 -79 5 -139 -59 -249 -103 -178 -202
-342 -207 -342 -3 -1 -63 95 -132 212 -83 139 -131 229 -138 262 -26 118 35
246 142 298 85 41 127 45 204 22z m-141 -732 c33 -57 62 -103 65 -103 3 1 32
48 65 105 l59 105 317 0 317 0 67 -112 c37 -62 97 -164 133 -225 37 -62 69
-113 72 -113 3 0 65 101 139 225 l133 225 525 -2 526 -3 49 -180 c27 -99 70
-259 97 -355 93 -339 123 -452 118 -456 -5 -6 -3149 -5 -3155 0 -2 3 25 112
61 243 35 131 95 354 133 496 l69 258 75 -3 75 -3 60 -102z"/>
<path d="M634 1631 c-45 -28 -64 -59 -64 -109 0 -62 23 -100 76 -123 36 -17
50 -18 81 -9 67 18 103 63 103 125 0 104 -110 169 -196 116z m142 -35 c29 -29
34 -41 34 -79 0 -132 -184 -158 -219 -30 -21 77 31 143 113 143 30 0 45 -7 72
-34z"/>
<path d="M2675 1097 c-86 -40 -155 -135 -171 -234 -14 -90 0 -119 269 -570 10
-18 22 -33 25 -33 4 1 27 35 51 78 25 42 84 142 131 222 103 171 114 201 108
289 -8 107 -58 186 -150 236 -43 24 -67 29 -133 32 -67 3 -88 -1 -130 -20z
m221 -14 c63 -21 136 -95 158 -159 20 -59 21 -144 2 -189 -8 -19 -70 -128
-137 -241 l-122 -205 -109 183 c-161 270 -162 271 -162 353 -1 196 180 323
370 258z"/>
<path d="M2744 946 c-37 -17 -70 -57 -79 -96 -16 -71 43 -149 117 -157 154
-15 205 192 61 253 -40 17 -59 17 -99 0z m102 -22 c62 -30 81 -101 44 -162
-46 -76 -156 -68 -195 15 -16 33 -16 41 -4 77 15 43 66 86 101 86 11 0 35 -7
54 -16z"/>
</g>
</svg>
